<?xml version="1.0" encoding="utf-8"?>
<!-- Generator: Adobe Illustrator 16.0.0, SVG Export Plug-In . SVG Version: 6.00 Build 0)  -->
<!DOCTYPE svg PUBLIC "-//W3C//DTD SVG 1.1//EN" "http://www.w3.org/Graphics/SVG/1.1/DTD/svg11.dtd">
<svg version="1.1" id="Layer_1" xmlns="http://www.w3.org/2000/svg" xmlns:xlink="http://www.w3.org/1999/xlink" x="0px" y="0px"
	 width="142px" height="25px" viewBox="0 0 142 25" enable-background="new 0 0 142 25"
	 xml:space="preserve">
	 
	 <path d="M8.24 10.54 l-3.98 3.2 l3.98 3.2 l0 3.26 l-7.18 -5.58 l0 -1.78 l7.18 -5.58 l0 3.28 z M21.8 6 l0 9.48 c0 3.44 -2.84 4.72 -5.66 4.72 s-5.64 -1.3 -5.64 -4.72 l0 -9.48 l2.82 0 l0 9.48 c0 1.72 1.4 2.34 2.82 2.34 s2.84 -0.62 2.84 -2.34 l0 -9.48 l2.82 0 z M29.240000000000002 20 l-4.6 0 l0 -1.1 l0.98 -2.38 c-1.18 -0.58 -1.74 -1.68 -1.74 -3.12 c0 -2.2 1.32 -3.6 4.22 -3.6 c0.64 0 1.22 0.08 1.7 0.2 l3.88 0 l0 2.08 l-1.56 0 c0.14 0.4 0.2 0.84 0.2 1.32 c0 2.2 -1.3 3.6 -4.22 3.6 l-0.1 0 l-0.38 0.92 l2.04 0 c2.58 0 3.34 1.14 3.34 2.78 c0 2.54 -2.06 3.5 -4.72 3.5 c-2.04 0 -3.44 -0.38 -4.64 -1.1 l1.02 -2.06 c1.36 0.74 2.22 0.88 3.52 0.88 c1.16 0 2 -0.28 2 -1.16 c0 -0.44 -0.2 -0.76 -0.94 -0.76 z M28.1 12.08 c-0.98 0 -1.4 0.5 -1.4 1.32 c0 0.8 0.42 1.32 1.4 1.32 c1 0 1.4 -0.52 1.4 -1.32 c0 -0.82 -0.4 -1.32 -1.4 -1.32 z M39.68 12.18 c-1.46 0 -2.16 1.1 -2.16 2.82 s0.7 2.82 2.16 2.82 s2.14 -1.1 2.14 -2.82 s-0.68 -2.82 -2.14 -2.82 z M39.68 20.2 c-3.32 0 -4.98 -2.08 -4.98 -5.2 s1.66 -5.2 4.98 -5.2 s4.96 2.08 4.96 5.2 s-1.64 5.2 -4.96 5.2 z M56.279999999999994 9.98 c0 2.24 -1 3.6 -2.88 4.1 l3.46 5.92 l-3.22 0 l-3.32 -5.7 l-0.76 0 l0 5.7 l-2.82 0 l0 -14 l4.76 0 c3.12 0 4.78 1.48 4.78 3.98 z M51.49999999999999 8.38 l-1.94 0 l0 3.54 l1.94 0 c1.32 0 1.96 -0.42 1.96 -1.86 c0 -1 -0.64 -1.68 -1.96 -1.68 z M66.72 20 l-2.84 0 c-0.1 -0.3 -0.18 -0.62 -0.2 -0.98 c-0.68 0.8 -1.66 1.18 -2.64 1.18 c-2.14 0 -3.32 -1.14 -3.32 -3.22 c0 -2.42 1.9 -3.02 4.16 -3.02 c0.62 0 1.24 0.06 1.8 0.14 l0 -0.74 c0 -0.82 -0.52 -1.18 -1.28 -1.18 c-0.68 0 -1.06 0.38 -1.18 0.88 l-3.06 -0.36 c0.32 -1.82 2.1 -2.9 4.26 -2.9 c2.24 0 4.08 1.1 4.08 3.46 l0 3.2 c0 1.32 0.04 2.38 0.22 3.54 z M63.68 15.92 l-1.24 0 c-1.14 0 -1.9 0.24 -1.9 1.08 c0 0.56 0.42 0.82 1.06 0.82 c1.12 0 2.08 -0.78 2.08 -1.9 z M69.38000000000001 12.379999999999999 l-1.34 0 l0 -2.38 l1.34 0 l0 -1.42 c0 -2.2 1.3 -3.38 3.42 -3.38 c0.56 0 1.2 0.1 1.9 0.28 l-0.62 2.36 c-0.34 -0.16 -0.7 -0.26 -1 -0.26 c-0.5 0 -0.88 0.26 -0.88 0.94 l0 1.48 l2.54 0 l0 2.38 l-2.54 0 l0 7.62 l-2.82 0 l0 -7.62 z M77.02000000000001 12.379999999999999 l-1.34 0 l0 -2.38 l1.34 0 l0 -1.42 c0 -2.2 1.3 -3.38 3.42 -3.38 c0.56 0 1.2 0.1 1.9 0.28 l-0.62 2.36 c-0.34 -0.16 -0.7 -0.26 -1 -0.26 c-0.5 0 -0.88 0.26 -0.88 0.94 l0 1.48 l2.54 0 l0 2.38 l-2.54 0 l0 7.62 l-2.82 0 l0 -7.62 z M92.46000000000001 20 l-2.84 0 c-0.1 -0.3 -0.18 -0.62 -0.2 -0.98 c-0.68 0.8 -1.66 1.18 -2.64 1.18 c-2.14 0 -3.32 -1.14 -3.32 -3.22 c0 -2.42 1.9 -3.02 4.16 -3.02 c0.62 0 1.24 0.06 1.8 0.14 l0 -0.74 c0 -0.82 -0.52 -1.18 -1.28 -1.18 c-0.68 0 -1.06 0.38 -1.18 0.88 l-3.06 -0.36 c0.32 -1.82 2.1 -2.9 4.26 -2.9 c2.24 0 4.08 1.1 4.08 3.46 l0 3.2 c0 1.32 0.04 2.38 0.22 3.54 z M89.42 15.92 l-1.24 0 c-1.14 0 -1.9 0.24 -1.9 1.08 c0 0.56 0.42 0.82 1.06 0.82 c1.12 0 2.08 -0.78 2.08 -1.9 z M102.88000000000002 17 l0.9 2.22 c-1.38 0.66 -2.72 0.98 -3.96 0.98 c-3.4 0 -5.5 -1.98 -5.5 -5.2 c0 -3.12 1.68 -5.2 4.98 -5.2 c3.12 0 4.66 2 4.66 4.76 l0 1.48 l-6.72 0 c0.28 1.12 1.1 1.78 2.64 1.78 c0.84 0 1.84 -0.26 3 -0.82 z M99.30000000000001 12.18 c-1.06 0 -1.72 0.58 -2 1.56 l3.82 0 c-0.08 -1.08 -0.82 -1.56 -1.82 -1.56 z M106.06000000000003 17.42 l0 -12.02 l2.82 0 l0 11.36 c0 0.62 0.22 0.94 0.68 0.94 c0.2 0 0.44 -0.06 0.7 -0.18 l0.4 2.34 c-0.64 0.2 -1.34 0.34 -2 0.34 c-1.5 0 -2.6 -0.66 -2.6 -2.78 z M120.44000000000003 17 l0.9 2.22 c-1.38 0.66 -2.72 0.98 -3.96 0.98 c-3.4 0 -5.5 -1.98 -5.5 -5.2 c0 -3.12 1.68 -5.2 4.98 -5.2 c3.12 0 4.66 2 4.66 4.76 l0 1.48 l-6.72 0 c0.28 1.12 1.1 1.78 2.64 1.78 c0.84 0 1.84 -0.26 3 -0.82 z M116.86000000000001 12.18 c-1.06 0 -1.72 0.58 -2 1.56 l3.82 0 c-0.08 -1.08 -0.82 -1.56 -1.82 -1.56 z M129.46000000000004 6 l3.06 0 l-7.02 16 l-3.06 0 z M133.60000000000005 20.2 l0 -3.26 l3.98 -3.2 l-3.98 -3.2 l0 -3.28 l7.18 5.58 l0 1.78 z"></path>
	 
</svg>
